# xmcd
# 
# Track frame offsets:
#     150
#     17345
#     34757
#     53087
#     73617
#     89195
#     108707
#     129110
#     154235
#     177487
# 
# Disc length: 2625
# 
# Revision: 9
# Processed by: cddbd v1.5.2PL0 Copyright (c) Steve Scherf et al.
# Submitted via: fre:ac v1.0.31
# 
DISCID=830a3f0a
DTITLE=Manh Dinh - ASCD065-Xot Xa
DYEAR=1994
DGENRE=Blues
TTITLE0=Buon
TTITLE1=Lo 1 Cuoc Tinh 8
TTITLE2=Kiep Cam Ca
TTITLE3=Xot Xa
TTITLE4=Hai Dua Con Co Don
TTITLE5=Con Gi Ma Mong
TTITLE6=Cam On Moi Ngot Doi Gian
TTITLE7=Chuyen Ba Nguoi
TTITLE8=Van Buon Nhu Xua
TTITLE9=Mua Chieu
EXTD=
EXTT0=
EXTT1=
EXTT2=
EXTT3=
EXTT4=
EXTT5=
EXTT6=
EXTT7=
EXTT8=
EXTT9=
PLAYORDER=
